<svg width="41" height="43" viewBox="0 0 41 43" fill="none" xmlns="http://www.w3.org/2000/svg">
<path d="M21.7784 9.57789H19.4298C19.215 9.57789 19.0392 9.75367 19.0392 9.96851V23.4109C19.0392 23.5378 19.0978 23.655 19.2003 23.7283L27.2716 29.6218C27.4474 29.7488 27.6915 29.7146 27.8185 29.5388L29.215 27.6345C29.3468 27.4539 29.3077 27.2097 29.1319 27.0877L22.1691 22.0535V9.96851C22.1691 9.75367 21.9933 9.57789 21.7784 9.57789ZM32.5109 13.2498L40.1671 15.1199C40.4112 15.1785 40.6505 14.9929 40.6505 14.7439L40.6896 6.85816C40.6896 6.53101 40.3136 6.34547 40.0597 6.55054L32.3644 12.5613C32.3062 12.6063 32.2619 12.6668 32.2366 12.7358C32.2113 12.8048 32.206 12.8796 32.2213 12.9515C32.2366 13.0235 32.2719 13.0896 32.3231 13.1424C32.3743 13.1951 32.4394 13.2323 32.5109 13.2498ZM40.6993 27.9519L37.9308 26.9998C37.8342 26.9667 37.7286 26.9727 37.6364 27.0165C37.5443 27.0603 37.4729 27.1384 37.4376 27.2341C37.3448 27.4832 37.2472 27.7273 37.1446 27.9714C36.2755 30.0271 35.0304 31.8777 33.4386 33.4646C31.8645 35.0436 29.9989 36.3022 27.9454 37.1707C25.8181 38.0701 23.5314 38.5317 21.2218 38.5281C18.8878 38.5281 16.6271 38.074 14.4982 37.1707C12.4446 36.3022 10.5791 35.0436 9.00499 33.4646C7.41808 31.8777 6.17296 30.0271 5.29894 27.9714C4.40449 25.8429 3.94622 23.5566 3.95128 21.2478C3.95128 18.9138 4.40538 16.6482 5.3087 14.5193C6.17784 12.4636 7.42296 10.613 9.01476 9.02613C10.5889 7.44712 12.4544 6.18852 14.5079 5.32007C16.6271 4.41675 18.8927 3.96265 21.2267 3.96265C23.5607 3.96265 25.8214 4.41675 27.9503 5.32007C30.0038 6.18852 31.8693 7.44712 33.4435 9.02613C33.9415 9.52906 34.4103 10.0515 34.84 10.6033L37.7599 8.31812C33.9171 3.40601 27.9357 0.246832 21.2169 0.251715C9.51768 0.256597 0.123155 9.75855 0.240342 21.4627C0.35753 32.9617 9.70812 42.2439 21.2267 42.2439C30.2843 42.2439 37.9991 36.5017 40.9386 28.4597C41.0118 28.2546 40.9044 28.0252 40.6993 27.9519Z" fill="#65FADD"/>
</svg>
