<svg width="30" height="31" viewBox="0 0 30 31" fill="none" xmlns="http://www.w3.org/2000/svg">
<circle cx="15" cy="15.239" r="15" fill="#2F71FD"/>
<path fill-rule="evenodd" clip-rule="evenodd" d="M15 8.73901C13.235 8.73901 13.0135 8.74651 12.32 8.77801C11.628 8.80951 11.1555 8.91951 10.742 9.08001C10.3084 9.24334 9.91556 9.49929 9.591 9.83001C9.26021 10.1547 9.00426 10.5477 8.841 10.9815C8.6805 11.3945 8.571 11.867 8.539 12.559C8.5075 13.2525 8.5 13.474 8.5 15.239C8.5 17.004 8.5075 17.2255 8.539 17.919C8.5705 18.611 8.6805 19.0835 8.841 19.4965C9.0075 19.924 9.2295 20.2865 9.591 20.648C9.91556 20.9787 10.3084 21.2347 10.742 21.398C11.1555 21.558 11.628 21.668 12.32 21.7C13.0135 21.7315 13.235 21.739 15 21.739C16.765 21.739 16.9865 21.7315 17.68 21.7C18.372 21.6685 18.8445 21.5585 19.2575 21.398C19.6913 21.2348 20.0843 20.9788 20.409 20.648C20.7398 20.3233 20.9957 19.9303 21.159 19.4965C21.319 19.0835 21.429 18.611 21.461 17.919C21.4925 17.2255 21.5 17.004 21.5 15.239C21.5 13.474 21.4925 13.2525 21.461 12.559C21.4295 11.867 21.3195 11.3945 21.1585 10.9815C20.9954 10.5477 20.7396 10.1548 20.409 9.83001C20.0843 9.49921 19.6913 9.24326 19.2575 9.08001C18.8445 8.92001 18.372 8.81001 17.68 8.77801C16.9865 8.74651 16.765 8.73901 15 8.73901ZM15 9.91001C16.7355 9.91001 16.941 9.91701 17.6265 9.94801C18.26 9.97701 18.6045 10.083 18.8335 10.172C19.137 10.29 19.3535 10.4305 19.581 10.658C19.8085 10.8855 19.949 11.102 20.067 11.4055C20.156 11.6345 20.262 11.9785 20.291 12.6125C20.322 13.2975 20.329 13.5035 20.329 15.239C20.329 16.9745 20.322 17.18 20.291 17.8655C20.262 18.4995 20.156 18.8435 20.067 19.0725C19.9629 19.3549 19.7968 19.6103 19.581 19.82C19.3713 20.0358 19.1159 20.2019 18.8335 20.306C18.6045 20.395 18.26 20.501 17.6265 20.53C16.9415 20.561 16.7355 20.568 15 20.568C13.2645 20.568 13.0585 20.561 12.3735 20.53C11.7395 20.501 11.3955 20.395 11.1665 20.306C10.8841 20.2019 10.6287 20.0358 10.419 19.82C10.2032 19.6103 10.0372 19.3548 9.933 19.0725C9.844 18.8435 9.738 18.4995 9.709 17.8655C9.678 17.1805 9.671 16.9745 9.671 15.239C9.671 13.5035 9.678 13.298 9.709 12.6125C9.738 11.9785 9.844 11.6345 9.933 11.4055C10.051 11.102 10.1915 10.8855 10.419 10.658C10.6287 10.4422 10.8842 10.2761 11.1665 10.172C11.3955 10.083 11.7395 9.97701 12.3735 9.94801C13.0585 9.91701 13.2645 9.91001 15 9.91001Z" fill="white"/>
<path fill-rule="evenodd" clip-rule="evenodd" d="M15 11.739C14.0717 11.739 13.1815 12.1078 12.5251 12.7641C11.8687 13.4205 11.5 14.3108 11.5 15.239C11.5 16.1673 11.8687 17.0575 12.5251 17.7139C13.1815 18.3703 14.0717 18.739 15 18.739C15.9283 18.739 16.8185 18.3703 17.4749 17.7139C18.1313 17.0575 18.5 16.1673 18.5 15.239C18.5 14.3108 18.1313 13.4205 17.4749 12.7641C16.8185 12.1078 15.9283 11.739 15 11.739ZM15 17.489C14.4033 17.489 13.831 17.252 13.409 16.83C12.9871 16.408 12.75 15.8358 12.75 15.239C12.75 14.6423 12.9871 14.07 13.409 13.648C13.831 13.2261 14.4033 12.989 15 12.989C15.5967 12.989 16.169 13.2261 16.591 13.648C17.0129 14.07 17.25 14.6423 17.25 15.239C17.25 15.8358 17.0129 16.408 16.591 16.83C16.169 17.252 15.5967 17.489 15 17.489ZM19.35 11.789C19.35 11.8941 19.3293 11.9981 19.2891 12.0952C19.2489 12.1922 19.19 12.2804 19.1157 12.3547C19.0414 12.429 18.9532 12.4879 18.8561 12.5281C18.7591 12.5683 18.6551 12.589 18.55 12.589C18.4449 12.589 18.3409 12.5683 18.2439 12.5281C18.1468 12.4879 18.0586 12.429 17.9843 12.3547C17.91 12.2804 17.8511 12.1922 17.8109 12.0952C17.7707 11.9981 17.75 11.8941 17.75 11.789C17.75 11.5768 17.8343 11.3734 17.9843 11.2233C18.1343 11.0733 18.3378 10.989 18.55 10.989C18.7622 10.989 18.9657 11.0733 19.1157 11.2233C19.2657 11.3734 19.35 11.5768 19.35 11.789Z" fill="white"/>
</svg>
