<svg width="145" height="162" viewBox="0 0 145 162" fill="none" xmlns="http://www.w3.org/2000/svg">
<g clip-path="url(#clip0_24_5790)">
<path d="M129.71 113.772V47.912L142.31 40.642C143.78 43.192 144.59 46.112 144.59 49.162V112.522C144.59 115.472 143.83 118.292 142.45 120.782C142.41 120.872 142.36 120.952 142.31 121.042L129.71 113.772Z" fill="#2F71FD"/>
<path d="M72.6801 161.242V146.702L129.71 113.772L142.31 121.042C140.84 123.592 138.71 125.752 136.07 127.282L129.71 130.952L121.19 135.872L81.2001 158.962C78.7701 160.362 76.0901 161.112 73.3801 161.212C73.1501 161.242 72.9101 161.242 72.6801 161.242Z" fill="#2F71FD"/>
<path d="M3.05005 121.042L15.65 113.772L72.6801 146.702V161.242C69.7401 161.242 66.8 160.482 64.16 158.962L49.2201 150.332L46.3501 148.682L9.29005 127.282C6.82005 125.842 4.78005 123.852 3.33005 121.502C3.23005 121.352 3.14005 121.202 3.05005 121.042Z" fill="#2F71FD"/>
<path d="M0.77002 112.522V49.162C0.77002 46.482 1.40002 43.902 2.54002 41.582C2.70002 41.262 2.87002 40.952 3.05002 40.642L15.65 47.912V113.772L3.05002 121.042C1.58002 118.492 0.77002 115.572 0.77002 112.522Z" fill="#2F71FD"/>
<path d="M129.71 47.912L142.31 40.642C142.21 40.472 142.12 40.312 142.01 40.152C140.56 37.812 138.54 35.832 136.07 34.402L96.1801 11.372L96.16 11.362L96.12 11.342L96.0601 11.312L87.9201 6.60202L87.5601 6.39202L81.2001 2.72202C78.5601 1.20202 75.6201 0.442017 72.6801 0.442017V14.982L129.71 47.912Z" fill="#2F71FD"/>
<path d="M3.05005 40.642C4.49005 38.142 6.58005 36.012 9.14005 34.502C9.19005 34.462 9.24005 34.432 9.29005 34.402L15.66 30.732L24.26 25.772L24.32 25.732L64.16 2.72202C66.44 1.41202 68.94 0.662017 71.47 0.492017C71.87 0.452017 72.2801 0.442017 72.6801 0.442017V14.982L15.66 47.902V47.912H15.65L3.05005 40.642Z" fill="#2F71FD"/>
<path opacity="0.2" d="M129.71 113.772V47.912L142.31 40.642C143.78 43.192 144.59 46.112 144.59 49.162V112.522C144.59 115.472 143.83 118.292 142.45 120.782C142.41 120.872 142.36 120.952 142.31 121.042L129.71 113.772Z" fill="url(#paint0_linear_24_5790)"/>
<path opacity="0.2" d="M72.6801 161.242V146.702L129.71 113.772L142.31 121.042C140.84 123.592 138.71 125.752 136.07 127.282L129.71 130.952L121.19 135.872L81.2001 158.962C78.7701 160.362 76.0901 161.112 73.3801 161.212C73.1501 161.242 72.9101 161.242 72.6801 161.242Z" fill="url(#paint1_linear_24_5790)"/>
<path opacity="0.2" d="M3.05005 121.042L15.65 113.772L72.6801 146.702V161.242C69.7401 161.242 66.8 160.482 64.16 158.962L49.2201 150.332L46.3501 148.682L9.29005 127.282C9.29005 127.282 9.28005 127.282 9.28005 127.272C6.81005 125.832 4.78005 123.852 3.33005 121.502C3.23005 121.352 3.14005 121.202 3.05005 121.042Z" fill="url(#paint2_linear_24_5790)"/>
<path opacity="0.2" d="M0.77002 112.522V49.162C0.77002 46.482 1.40002 43.902 2.54002 41.582C2.70002 41.262 2.87002 40.952 3.05002 40.642L15.65 47.912V113.772L3.05002 121.042C1.58002 118.492 0.77002 115.572 0.77002 112.522Z" fill="url(#paint3_linear_24_5790)"/>
<path opacity="0.2" d="M129.71 47.912L142.31 40.642C142.21 40.472 142.12 40.312 142.01 40.152C140.56 37.812 138.54 35.832 136.07 34.402L96.1801 11.372L96.16 11.362L96.12 11.342L96.0601 11.312L87.9201 6.60202L87.5601 6.39202L81.2001 2.72202C78.5601 1.20202 75.6201 0.442017 72.6801 0.442017V14.982L129.71 47.912Z" fill="url(#paint4_linear_24_5790)"/>
<path opacity="0.2" d="M3.05005 40.642C4.49005 38.142 6.58005 36.012 9.14005 34.502C9.16005 34.482 9.18005 34.462 9.20005 34.452C9.21005 34.442 9.22005 34.442 9.23005 34.432C9.25005 34.422 9.26005 34.412 9.28005 34.402H9.29005L15.66 30.732L24.26 25.772L24.32 25.732L64.16 2.72202C66.44 1.41202 68.94 0.662017 71.47 0.492017C71.87 0.452017 72.2801 0.442017 72.6801 0.442017V14.982L15.65 47.912L3.05005 40.642Z" fill="url(#paint5_linear_24_5790)"/>
<path d="M90.88 109.162L90.72 79.142L76.16 103.572H69.04L54.56 79.952V109.162H39.75V52.522H52.94L72.84 85.212L92.26 52.522H105.45L105.61 109.152H90.88V109.162Z" fill="#2F71FD"/>
<path d="M121.19 135.872C126.46 132.772 129.71 127.092 129.71 120.962V113.772L135.47 115.682L142.45 120.782C142.41 120.872 142.36 120.952 142.31 121.042C140.84 123.592 138.71 125.752 136.07 127.282L129.71 130.952L121.19 135.872Z" fill="#2F71FD"/>
<path d="M49.22 150.332C54.56 153.382 61.13 153.362 66.46 150.292L72.68 146.702L75.44 153.412L73.38 161.212C73.15 161.242 72.91 161.242 72.68 161.242C69.74 161.242 66.8 160.482 64.16 158.962L49.22 150.332Z" fill="#2F71FD"/>
<path d="M68.71 6.66202L71.47 0.492017C71.87 0.452017 72.28 0.442017 72.68 0.442017C75.62 0.442017 78.56 1.20202 81.2 2.72202L87.56 6.39202L87.92 6.60202L96.16 11.362L96.12 11.342L96.06 11.312C90.73 8.30202 84.21 8.33202 78.91 11.392L72.68 14.982L68.71 6.66202Z" fill="#2F71FD"/>
<path d="M0.77002 112.522V95.182C0.77002 101.362 4.07002 107.082 9.42002 110.172L15.65 113.772L9.31002 119.502L3.33002 121.502C3.23002 121.352 3.14002 121.202 3.05002 121.042C1.58002 118.492 0.77002 115.572 0.77002 112.522Z" fill="#2F71FD"/>
<path d="M129.71 47.912L133.79 42.762L142.01 40.152C142.12 40.312 142.21 40.472 142.31 40.642C143.78 43.192 144.59 46.112 144.59 49.162V66.502C144.59 60.312 141.29 54.602 135.94 51.512L129.71 47.912Z" fill="#2F71FD"/>
<path d="M2.54004 41.582C2.70004 41.262 2.87004 40.952 3.05004 40.642C4.49004 38.142 6.58004 36.012 9.14004 34.502C9.19004 34.462 9.24004 34.432 9.29004 34.402L15.66 30.732L24.26 25.772C18.93 28.872 15.66 34.562 15.66 40.722V47.912H15.65L6.56004 46.742L2.54004 41.582Z" fill="#2F71FD"/>
</g>
<defs>
<linearGradient id="paint0_linear_24_5790" x1="137.151" y1="44.7109" x2="137.151" y2="119.743" gradientUnits="userSpaceOnUse">
<stop offset="0.00558659"/>
<stop offset="1" stop-opacity="0"/>
</linearGradient>
<linearGradient id="paint1_linear_24_5790" x1="136.511" y1="115.313" x2="76.1193" y2="156.101" gradientUnits="userSpaceOnUse">
<stop offset="0.00558659"/>
<stop offset="1" stop-opacity="0"/>
</linearGradient>
<linearGradient id="paint2_linear_24_5790" x1="75.7769" y1="158.837" x2="7.56635" y2="116.016" gradientUnits="userSpaceOnUse">
<stop offset="0.00558659"/>
<stop offset="1" stop-opacity="0"/>
</linearGradient>
<linearGradient id="paint3_linear_24_5790" x1="8.21092" y1="119.363" x2="8.21092" y2="40.5279" gradientUnits="userSpaceOnUse">
<stop offset="0.00558659"/>
<stop offset="1" stop-opacity="0"/>
</linearGradient>
<linearGradient id="paint4_linear_24_5790" x1="70.6386" y1="7.19502" x2="136.196" y2="41.3002" gradientUnits="userSpaceOnUse">
<stop offset="0.00558659"/>
<stop offset="1" stop-opacity="0"/>
</linearGradient>
<linearGradient id="paint5_linear_24_5790" x1="7.58655" y1="45.0353" x2="73.5234" y2="4.86691" gradientUnits="userSpaceOnUse">
<stop offset="0.00558659"/>
<stop offset="1" stop-opacity="0"/>
</linearGradient>
<clipPath id="clip0_24_5790">
<rect width="143.82" height="160.8" fill="white" transform="translate(0.77002 0.442017)"/>
</clipPath>
</defs>
</svg>
